<svg xmlns="http://www.w3.org/2000/svg" width="547" height="547" viewBox="0 0 547 547">
  <g id="Group_6" data-name="Group 6" transform="translate(3732 -974)">
    <rect id="Rectangle_16" data-name="Rectangle 16" width="547" height="547" rx="85" transform="translate(-3732 974)" fill="#fff"/>
    <g id="Group_5" data-name="Group 5">
      <path id="Path_98" data-name="Path 98" d="M-2117.472,1364.56c1.5,1.8,63.419-22.843,63.419-22.843s-6.011-49.593,44.784-63.118,68.228,35.466,68.228,41.778,6.913,42.079-21.641,61.315-74.239,40.877-74.239,40.877-21.941,15.028-17.132,39.073,13.225,52.6,13.225,52.6,100.088-51.4,122.931-66.124,71.234-62.517,57.107-127.74-50.8-79.649-52.6-81.753-66.425-41.177-143.669-12.624c-61.564,22.757-77.639,76.964-75.442,107C-2131,1350.132-2117.777,1364.193-2117.472,1364.56Z" transform="translate(-1451 -151)" fill="#69e"/>
      <path id="Path_97" data-name="Path 97" d="M-2038.1,1525.6c-2.947.316,71.666-38.411,71.666-38.411s20.521,67.561,22.52,68.4-77.559,25.888-77.559,25.888S-2035.155,1525.287-2038.1,1525.6Z" transform="translate(-1451 -151)" fill="#69e"/>
      <path id="Path_99" data-name="Path 99" d="M-2065.5,1474.911s-9.987-37.075,10.534-53.765,83.452-47.335,83.452-47.335,26.814-16.143,21.615-45.693-30.918-37.622-37.074-38.306-25.446-2.326-39.537,10.26-15.6,29.413-15.459,35.57,1.368,8.345,1.368,8.345l-65.667,25.309s-11.081,5.062-16.69-1.778-16.417-20.384-13.27-31.876-19.837,55.133-20.384,58.006-2.052,11.355,2.873,12.723,8.345,4.515,8.072,7.8-4.378,5.472-4.1,8.208,3.01,11.492,7.251,13.544-1.779,14.638,0,17.374,6.43-.684,9.576,3.283,8.345,8.208,10.534,21.068,17.238,12.176,20.247,11.355S-2065.5,1474.911-2065.5,1474.911Z" transform="translate(-1451 -151)" fill="#a6a2a2"/>
    </g>
  </g>
</svg>
